<!-- Generated by IcoMoon.io -->
<svg version="1.1" xmlns="http://www.w3.org/2000/svg" width="24" height="24" viewBox="0 0 24 24">
<title>thumbs-down</title>
<path d="M18 12v-9h1.67c0.361-0.006 0.674 0.119 0.911 0.332 0.213 0.191 0.364 0.45 0.419 0.746v6.787c-0.037 0.34-0.208 0.63-0.455 0.833-0.235 0.194-0.537 0.306-0.861 0.301zM9 16v3c0 1.104 0.449 2.106 1.172 2.828s1.724 1.172 2.828 1.172c0.405 0 0.754-0.241 0.914-0.594l3.736-8.406h2.006c0.81 0.012 1.569-0.27 2.16-0.756 0.622-0.511 1.059-1.251 1.175-2.11 0.006-0.040 0.009-0.087 0.009-0.134v-7c0-0.042-0.003-0.089-0.009-0.137-0.111-0.803-0.505-1.51-1.075-2.020-0.6-0.537-1.397-0.857-2.246-0.842h-13.95c-0.767-0.009-1.482 0.281-2.021 0.763-0.505 0.452-0.857 1.076-0.967 1.783l-1.38 9.002c-0.125 0.82 0.096 1.614 0.55 2.231s1.147 1.063 1.965 1.187c0.165 0.024 0.333 0.036 0.492 0.033zM11 15c0-0.552-0.448-1-1-1l-5.745-0.002-0.088-0.010c-0.273-0.041-0.502-0.188-0.655-0.396s-0.225-0.47-0.184-0.742l1.38-8.998c0.037-0.239 0.156-0.448 0.325-0.6 0.18-0.16 0.416-0.255 0.687-0.252h10.28v9.788l-3.608 8.118c-0.307-0.098-0.582-0.268-0.806-0.492-0.363-0.363-0.586-0.861-0.586-1.414z"></path>
</svg>
