<!-- Generated by IcoMoon.io -->
<svg version="1.1" xmlns="http://www.w3.org/2000/svg" width="32" height="32" viewBox="0 0 32 32">
<title>adobeaftereffects</title>
<path fill="#d291ff" d="M0 0.4v31.2h32v-31.2h-32zM1.333 1.733h29.333v28.533h-29.333v-28.533zM9.045 18.067l-1.056 3.981c-0.023 0.111-0.067 0.151-0.197 0.151h-1.957c-0.133 0-0.155-0.047-0.133-0.2l3.787-13.244c0.067-0.24 0.109-0.433 0.131-1.093 0-0.088 0.044-0.133 0.111-0.133h2.795c0.088 0 0.133 0.024 0.155 0.133l4.244 14.36c0.021 0.109 0 0.173-0.111 0.173h-2.2c-0.109 0-0.173-0.040-0.196-0.128l-1.1-4.003h-4.267zM12.787 15.901c-0.373-1.475-1.28-4.707-1.608-6.267h-0.021c-0.285 1.56-1.008 4.197-1.56 6.267h3.189zM19.933 17.267c0.023 1.804 0.88 3.013 2.904 3.013 0.792 0 1.471-0.104 2.173-0.413 0.089-0.043 0.156-0.020 0.156 0.089v1.672c0 0.133-0.044 0.2-0.133 0.267-0.703 0.352-1.579 0.507-2.68 0.507-3.52 0-4.84-2.596-4.84-5.5 0-3.147 1.629-5.72 4.489-5.72 2.904 0 3.916 2.444 3.916 4.423 0 0.64-0.047 1.168-0.113 1.409-0.023 0.109-0.067 0.147-0.176 0.169-0.264 0.044-1.056 0.088-2.223 0.088h-3.473zM22.64 15.433c0.683 0 0.924 0 0.989-0.021 0-0.091 0.023-0.167 0.023-0.232 0-0.727-0.355-2.059-1.741-2.059-1.276 0-1.827 1.123-1.957 2.309h2.684z"></path>
</svg>
