<!-- Generated by IcoMoon.io -->
<svg version="1.1" xmlns="http://www.w3.org/2000/svg" width="32" height="32" viewBox="0 0 32 32">
<title>graphcool</title>
<path fill="#27ae60" d="M28.184 10.572c-1.556-0.876-3.511 0.267-3.824 0.464l-6.716 3.809c-0.992-0.788-2.405-0.755-3.359 0.080-0.953 0.833-1.175 2.228-0.527 3.317s1.981 1.557 3.168 1.115 1.888-1.669 1.667-2.916l6.74-3.827c0.44-0.279 1.461-0.695 1.939-0.425 0.344 0.195 0.54 0.844 0.556 1.8h-0.008v8.401c-0.001 0.784-0.419 1.508-1.097 1.901l-9.629 5.563c-0.68 0.391-1.516 0.391-2.195 0l-9.629-5.563c-0.679-0.393-1.096-1.117-1.097-1.901v-11.12c0.001-0.784 0.419-1.508 1.097-1.9l8.715-5.029c0.828 0.951 2.219 1.176 3.305 0.533 1.087-0.64 1.563-1.967 1.131-3.151-0.432-1.187-1.648-1.895-2.892-1.688-1.245 0.208-2.164 1.273-2.188 2.535l-8.991 5.193c-1.256 0.723-2.029 2.059-2.032 3.507v11.117c0.001 1.448 0.772 2.784 2.025 3.508l9.628 5.563c1.253 0.721 2.796 0.721 4.049 0l9.629-5.563c1.251-0.724 2.023-2.060 2.025-3.505v-8.083h0.007c0.045-1.896-0.463-3.151-1.497-3.736z"></path>
</svg>
